<mxfile host="app.diagrams.net" modified="2023-12-26T09:47:39.578Z" agent="Mozilla/5.0 (Windows NT 10.0; Win64; x64) AppleWebKit/537.36 (KHTML, like Gecko) Chrome/120.0.0.0 Safari/537.36" etag="Sm8n4wOUclqNm4WvdGZl" version="22.1.11" type="device">
  <diagram name="페이지-1" id="OY3fnkGNuswKuv6mI4_Y">
    <mxGraphModel dx="1434" dy="772" grid="1" gridSize="10" guides="1" tooltips="1" connect="1" arrows="1" fold="1" page="1" pageScale="1" pageWidth="827" pageHeight="1169" math="0" shadow="0">
      <root>
        <mxCell id="0" />
        <mxCell id="1" parent="0" />
        <mxCell id="y7DV-Pqd04iIveEv7THw-8" style="edgeStyle=orthogonalEdgeStyle;rounded=0;orthogonalLoop=1;jettySize=auto;html=1;exitX=0.5;exitY=1;exitDx=0;exitDy=0;entryX=0.5;entryY=0;entryDx=0;entryDy=0;strokeWidth=2;fontSize=14;" parent="1" source="y7DV-Pqd04iIveEv7THw-1" target="y7DV-Pqd04iIveEv7THw-2" edge="1">
          <mxGeometry relative="1" as="geometry" />
        </mxCell>
        <mxCell id="y7DV-Pqd04iIveEv7THw-1" value="시작" style="rounded=1;whiteSpace=wrap;html=1;arcSize=50;fontSize=14;" parent="1" vertex="1">
          <mxGeometry width="160" height="80" as="geometry" />
        </mxCell>
        <mxCell id="y7DV-Pqd04iIveEv7THw-9" style="edgeStyle=orthogonalEdgeStyle;rounded=0;orthogonalLoop=1;jettySize=auto;html=1;exitX=1;exitY=0.5;exitDx=0;exitDy=0;entryX=0;entryY=0.5;entryDx=0;entryDy=0;strokeColor=#990000;strokeWidth=2;fontSize=14;" parent="1" source="y7DV-Pqd04iIveEv7THw-2" target="y7DV-Pqd04iIveEv7THw-3" edge="1">
          <mxGeometry relative="1" as="geometry" />
        </mxCell>
        <mxCell id="y7DV-Pqd04iIveEv7THw-19" style="edgeStyle=orthogonalEdgeStyle;rounded=0;orthogonalLoop=1;jettySize=auto;html=1;exitX=0.5;exitY=1;exitDx=0;exitDy=0;entryX=0.5;entryY=0;entryDx=0;entryDy=0;strokeWidth=2;fontSize=14;" parent="1" source="y7DV-Pqd04iIveEv7THw-2" target="y7DV-Pqd04iIveEv7THw-13" edge="1">
          <mxGeometry relative="1" as="geometry" />
        </mxCell>
        <mxCell id="y7DV-Pqd04iIveEv7THw-2" value="레벨 1~3" style="rhombus;whiteSpace=wrap;html=1;fontSize=14;" parent="1" vertex="1">
          <mxGeometry y="120" width="160" height="80" as="geometry" />
        </mxCell>
        <mxCell id="y7DV-Pqd04iIveEv7THw-10" style="edgeStyle=orthogonalEdgeStyle;rounded=0;orthogonalLoop=1;jettySize=auto;html=1;exitX=1;exitY=0.5;exitDx=0;exitDy=0;entryX=0;entryY=0.5;entryDx=0;entryDy=0;strokeColor=#990000;strokeWidth=2;fontSize=14;" parent="1" source="y7DV-Pqd04iIveEv7THw-3" target="y7DV-Pqd04iIveEv7THw-4" edge="1">
          <mxGeometry relative="1" as="geometry" />
        </mxCell>
        <mxCell id="y7DV-Pqd04iIveEv7THw-20" style="edgeStyle=orthogonalEdgeStyle;rounded=0;orthogonalLoop=1;jettySize=auto;html=1;exitX=0.5;exitY=1;exitDx=0;exitDy=0;entryX=0.5;entryY=0;entryDx=0;entryDy=0;strokeWidth=2;fontSize=14;" parent="1" source="y7DV-Pqd04iIveEv7THw-3" target="y7DV-Pqd04iIveEv7THw-14" edge="1">
          <mxGeometry relative="1" as="geometry" />
        </mxCell>
        <mxCell id="y7DV-Pqd04iIveEv7THw-3" value="레벨 4" style="rhombus;whiteSpace=wrap;html=1;fontSize=14;" parent="1" vertex="1">
          <mxGeometry x="200" y="120" width="160" height="80" as="geometry" />
        </mxCell>
        <mxCell id="y7DV-Pqd04iIveEv7THw-11" style="edgeStyle=orthogonalEdgeStyle;rounded=0;orthogonalLoop=1;jettySize=auto;html=1;exitX=1;exitY=0.5;exitDx=0;exitDy=0;entryX=0;entryY=0.5;entryDx=0;entryDy=0;strokeColor=#990000;strokeWidth=2;fontSize=14;" parent="1" source="y7DV-Pqd04iIveEv7THw-4" target="y7DV-Pqd04iIveEv7THw-5" edge="1">
          <mxGeometry relative="1" as="geometry" />
        </mxCell>
        <mxCell id="y7DV-Pqd04iIveEv7THw-21" style="edgeStyle=orthogonalEdgeStyle;rounded=0;orthogonalLoop=1;jettySize=auto;html=1;exitX=0.5;exitY=1;exitDx=0;exitDy=0;entryX=0.5;entryY=0;entryDx=0;entryDy=0;strokeWidth=2;fontSize=14;" parent="1" source="y7DV-Pqd04iIveEv7THw-4" target="y7DV-Pqd04iIveEv7THw-15" edge="1">
          <mxGeometry relative="1" as="geometry" />
        </mxCell>
        <mxCell id="y7DV-Pqd04iIveEv7THw-4" value="레벨 5" style="rhombus;whiteSpace=wrap;html=1;fontSize=14;" parent="1" vertex="1">
          <mxGeometry x="400" y="120" width="160" height="80" as="geometry" />
        </mxCell>
        <mxCell id="y7DV-Pqd04iIveEv7THw-12" style="edgeStyle=orthogonalEdgeStyle;rounded=0;orthogonalLoop=1;jettySize=auto;html=1;exitX=1;exitY=0.5;exitDx=0;exitDy=0;entryX=0;entryY=0.5;entryDx=0;entryDy=0;strokeColor=#990000;strokeWidth=2;fontSize=14;" parent="1" source="y7DV-Pqd04iIveEv7THw-5" target="y7DV-Pqd04iIveEv7THw-7" edge="1">
          <mxGeometry relative="1" as="geometry" />
        </mxCell>
        <mxCell id="y7DV-Pqd04iIveEv7THw-22" style="edgeStyle=orthogonalEdgeStyle;rounded=0;orthogonalLoop=1;jettySize=auto;html=1;exitX=0.5;exitY=1;exitDx=0;exitDy=0;entryX=0.5;entryY=0;entryDx=0;entryDy=0;strokeWidth=2;fontSize=14;" parent="1" source="y7DV-Pqd04iIveEv7THw-5" target="y7DV-Pqd04iIveEv7THw-16" edge="1">
          <mxGeometry relative="1" as="geometry" />
        </mxCell>
        <mxCell id="y7DV-Pqd04iIveEv7THw-5" value="레벨 6" style="rhombus;whiteSpace=wrap;html=1;fontSize=14;" parent="1" vertex="1">
          <mxGeometry x="600" y="120" width="160" height="80" as="geometry" />
        </mxCell>
        <mxCell id="y7DV-Pqd04iIveEv7THw-23" style="edgeStyle=orthogonalEdgeStyle;rounded=0;orthogonalLoop=1;jettySize=auto;html=1;exitX=0.5;exitY=1;exitDx=0;exitDy=0;entryX=0.5;entryY=0;entryDx=0;entryDy=0;strokeWidth=2;fontSize=14;" parent="1" source="y7DV-Pqd04iIveEv7THw-7" target="y7DV-Pqd04iIveEv7THw-17" edge="1">
          <mxGeometry relative="1" as="geometry" />
        </mxCell>
        <mxCell id="y7DV-Pqd04iIveEv7THw-7" value="레벨 7" style="whiteSpace=wrap;html=1;fontSize=14;" parent="1" vertex="1">
          <mxGeometry x="800" y="120" width="160" height="80" as="geometry" />
        </mxCell>
        <mxCell id="y7DV-Pqd04iIveEv7THw-24" style="edgeStyle=orthogonalEdgeStyle;rounded=0;orthogonalLoop=1;jettySize=auto;html=1;exitX=0.5;exitY=1;exitDx=0;exitDy=0;strokeWidth=2;fontSize=14;" parent="1" source="y7DV-Pqd04iIveEv7THw-13" target="y7DV-Pqd04iIveEv7THw-18" edge="1">
          <mxGeometry relative="1" as="geometry" />
        </mxCell>
        <mxCell id="y7DV-Pqd04iIveEv7THw-13" value="레벨 1→2,&lt;br style=&quot;font-size: 14px;&quot;&gt;레벨 2→3,&lt;br style=&quot;font-size: 14px;&quot;&gt;레벨 3→4&lt;br style=&quot;font-size: 14px;&quot;&gt;레벨 업 연출" style="whiteSpace=wrap;html=1;fontSize=14;" parent="1" vertex="1">
          <mxGeometry y="240" width="160" height="80" as="geometry" />
        </mxCell>
        <mxCell id="y7DV-Pqd04iIveEv7THw-25" style="edgeStyle=orthogonalEdgeStyle;rounded=0;orthogonalLoop=1;jettySize=auto;html=1;exitX=0.5;exitY=1;exitDx=0;exitDy=0;entryX=0.5;entryY=0;entryDx=0;entryDy=0;strokeWidth=2;fontSize=14;" parent="1" source="y7DV-Pqd04iIveEv7THw-14" target="y7DV-Pqd04iIveEv7THw-18" edge="1">
          <mxGeometry relative="1" as="geometry" />
        </mxCell>
        <mxCell id="y7DV-Pqd04iIveEv7THw-14" value="레벨 4→5&lt;br style=&quot;font-size: 14px;&quot;&gt;레벨 업 연출" style="whiteSpace=wrap;html=1;fontSize=14;" parent="1" vertex="1">
          <mxGeometry x="200" y="240" width="160" height="80" as="geometry" />
        </mxCell>
        <mxCell id="y7DV-Pqd04iIveEv7THw-26" style="edgeStyle=orthogonalEdgeStyle;rounded=0;orthogonalLoop=1;jettySize=auto;html=1;exitX=0.5;exitY=1;exitDx=0;exitDy=0;entryX=0.5;entryY=0;entryDx=0;entryDy=0;strokeWidth=2;fontSize=14;" parent="1" source="y7DV-Pqd04iIveEv7THw-15" target="y7DV-Pqd04iIveEv7THw-18" edge="1">
          <mxGeometry relative="1" as="geometry" />
        </mxCell>
        <mxCell id="y7DV-Pqd04iIveEv7THw-15" value="레벨 5→6&lt;br style=&quot;font-size: 14px;&quot;&gt;레벨 업 연출" style="whiteSpace=wrap;html=1;fontSize=14;" parent="1" vertex="1">
          <mxGeometry x="400" y="240" width="160" height="80" as="geometry" />
        </mxCell>
        <mxCell id="y7DV-Pqd04iIveEv7THw-27" style="edgeStyle=orthogonalEdgeStyle;rounded=0;orthogonalLoop=1;jettySize=auto;html=1;exitX=0.5;exitY=1;exitDx=0;exitDy=0;strokeWidth=2;fontSize=14;" parent="1" source="y7DV-Pqd04iIveEv7THw-16" edge="1">
          <mxGeometry relative="1" as="geometry">
            <mxPoint x="80" y="360" as="targetPoint" />
          </mxGeometry>
        </mxCell>
        <mxCell id="y7DV-Pqd04iIveEv7THw-16" value="레벨 6→7&lt;br style=&quot;font-size: 14px;&quot;&gt;레벨 업 연출" style="whiteSpace=wrap;html=1;fontSize=14;" parent="1" vertex="1">
          <mxGeometry x="600" y="240" width="160" height="80" as="geometry" />
        </mxCell>
        <mxCell id="y7DV-Pqd04iIveEv7THw-28" style="edgeStyle=orthogonalEdgeStyle;rounded=0;orthogonalLoop=1;jettySize=auto;html=1;exitX=0.5;exitY=1;exitDx=0;exitDy=0;entryX=0.5;entryY=0;entryDx=0;entryDy=0;strokeWidth=2;fontSize=14;" parent="1" source="y7DV-Pqd04iIveEv7THw-17" target="y7DV-Pqd04iIveEv7THw-18" edge="1">
          <mxGeometry relative="1" as="geometry" />
        </mxCell>
        <mxCell id="y7DV-Pqd04iIveEv7THw-17" value="레벨 7→8&lt;br style=&quot;font-size: 14px;&quot;&gt;레벨 업 연출" style="whiteSpace=wrap;html=1;fontSize=14;" parent="1" vertex="1">
          <mxGeometry x="800" y="240" width="160" height="80" as="geometry" />
        </mxCell>
        <mxCell id="y7DV-Pqd04iIveEv7THw-30" style="edgeStyle=orthogonalEdgeStyle;rounded=0;orthogonalLoop=1;jettySize=auto;html=1;exitX=1;exitY=0.5;exitDx=0;exitDy=0;entryX=0;entryY=0.5;entryDx=0;entryDy=0;strokeWidth=2;fontSize=14;" parent="1" source="y7DV-Pqd04iIveEv7THw-18" target="y7DV-Pqd04iIveEv7THw-29" edge="1">
          <mxGeometry relative="1" as="geometry" />
        </mxCell>
        <mxCell id="y7DV-Pqd04iIveEv7THw-18" value="레벨 상승" style="whiteSpace=wrap;html=1;fontSize=14;" parent="1" vertex="1">
          <mxGeometry y="360" width="160" height="80" as="geometry" />
        </mxCell>
        <mxCell id="y7DV-Pqd04iIveEv7THw-32" style="edgeStyle=orthogonalEdgeStyle;rounded=0;orthogonalLoop=1;jettySize=auto;html=1;exitX=1;exitY=0.5;exitDx=0;exitDy=0;entryX=0;entryY=0.5;entryDx=0;entryDy=0;strokeWidth=2;fontSize=14;" parent="1" source="y7DV-Pqd04iIveEv7THw-29" target="nxcFnaH38UvUj5lE_Nb3-3" edge="1">
          <mxGeometry relative="1" as="geometry" />
        </mxCell>
        <mxCell id="y7DV-Pqd04iIveEv7THw-29" value="레벨 업&amp;nbsp;&lt;br style=&quot;font-size: 14px;&quot;&gt;텍스트 출력" style="shape=document;whiteSpace=wrap;html=1;boundedLbl=1;fontSize=14;" parent="1" vertex="1">
          <mxGeometry x="200" y="360" width="160" height="80" as="geometry" />
        </mxCell>
        <mxCell id="y7DV-Pqd04iIveEv7THw-31" value="레벨 달성 보상으로 이동" style="rounded=1;whiteSpace=wrap;html=1;arcSize=50;fontSize=14;" parent="1" vertex="1">
          <mxGeometry x="600" y="360" width="160" height="80" as="geometry" />
        </mxCell>
        <mxCell id="nxcFnaH38UvUj5lE_Nb3-3" value="레벨 업 이전 경험치&lt;br&gt;+ 레벨 업 이전 획득 경험치&lt;br&gt;- 이전 레벨 필요 경험치&lt;br&gt;만큼 경험치 상승" style="whiteSpace=wrap;html=1;" vertex="1" parent="1">
          <mxGeometry x="400" y="360" width="160" height="80" as="geometry" />
        </mxCell>
        <mxCell id="nxcFnaH38UvUj5lE_Nb3-4" style="edgeStyle=orthogonalEdgeStyle;rounded=0;orthogonalLoop=1;jettySize=auto;html=1;exitX=1;exitY=0.5;exitDx=0;exitDy=0;entryX=0;entryY=0.5;entryDx=0;entryDy=0;strokeWidth=2;fontSize=14;" edge="1" parent="1" source="nxcFnaH38UvUj5lE_Nb3-3" target="y7DV-Pqd04iIveEv7THw-31">
          <mxGeometry relative="1" as="geometry">
            <mxPoint x="460" y="520" as="sourcePoint" />
            <mxPoint x="500" y="520" as="targetPoint" />
          </mxGeometry>
        </mxCell>
      </root>
    </mxGraphModel>
  </diagram>
</mxfile>
